<svg id="svg" version="1.1" xmlns="http://www.w3.org/2000/svg" xmlns:xlink="http://www.w3.org/1999/xlink" width="400" height="400" viewBox="0, 0, 400,400"><g id="svgg"><path id="path0" d="M173.953 28.088 C 174.139 28.589,174.585 29.058,174.945 29.129 C 175.896 29.317,175.725 28.710,174.596 27.888 C 173.627 27.183,173.620 27.185,173.953 28.088 M129.680 39.680 C 129.416 39.944,129.200 40.742,129.200 41.453 C 129.200 42.390,128.982 42.815,128.408 42.997 C 127.973 43.136,127.634 43.373,127.655 43.524 C 127.937 45.499,127.514 49.200,127.008 49.200 C 125.914 49.200,125.600 55.213,126.656 55.937 C 126.867 56.082,127.402 57.200,127.845 58.422 C 129.154 62.032,134.206 70.553,137.320 74.400 C 137.587 74.730,138.897 76.620,140.229 78.600 C 141.562 80.580,144.005 84.180,145.657 86.600 C 147.310 89.020,150.618 93.880,153.008 97.400 C 155.398 100.920,157.461 103.890,157.592 104.000 C 157.723 104.110,158.855 105.730,160.108 107.600 C 162.412 111.038,167.416 118.384,170.772 123.253 C 171.777 124.713,173.677 127.503,174.994 129.453 C 176.310 131.404,177.480 133.090,177.594 133.200 C 177.918 133.515,181.862 139.270,188.829 149.598 C 190.683 152.347,192.346 154.777,192.524 154.998 C 193.060 155.663,197.250 161.771,202.267 169.200 C 208.975 179.134,208.588 178.866,212.648 176.400 C 214.097 175.520,215.439 174.800,215.632 174.800 C 216.248 174.800,217.297 172.830,217.039 172.157 C 216.818 171.581,214.575 168.187,211.000 163.017 C 205.717 155.379,204.203 153.173,201.100 148.600 C 197.997 144.026,193.732 137.772,189.371 131.400 C 188.618 130.300,187.866 129.216,187.701 128.991 C 186.751 127.698,183.146 122.447,175.762 111.600 C 173.890 108.850,170.924 104.530,169.171 102.000 C 167.418 99.470,164.085 94.610,161.764 91.200 C 159.442 87.790,156.420 83.380,155.048 81.400 C 153.677 79.420,150.770 75.190,148.589 72.000 C 146.408 68.810,142.945 63.770,140.893 60.800 C 135.959 53.661,133.798 49.165,133.200 44.801 C 132.803 41.903,132.585 41.321,131.530 40.334 C 130.116 39.014,130.286 39.074,129.680 39.680 M78.100 61.081 C 77.825 61.183,77.600 61.696,77.600 62.221 C 77.600 62.905,77.430 63.110,77.000 62.945 C 76.670 62.818,76.393 62.779,76.385 62.857 C 76.160 64.980,75.805 66.263,75.373 66.511 C 73.585 67.538,73.465 84.000,75.245 84.000 C 75.862 84.000,76.000 84.300,76.000 85.637 C 76.000 86.938,76.164 87.318,76.800 87.484 C 77.307 87.617,77.600 88.030,77.600 88.613 C 77.600 89.218,78.180 89.989,79.294 90.866 C 83.041 93.816,88.373 99.698,91.396 104.218 C 93.437 107.269,96.442 111.592,97.499 113.000 C 97.665 113.220,98.719 114.750,99.842 116.400 C 100.965 118.050,103.110 121.200,104.609 123.400 C 106.108 125.600,108.429 129.019,109.767 130.998 C 111.105 132.977,112.348 134.777,112.529 134.998 C 112.923 135.479,117.661 142.399,123.075 150.400 C 127.918 157.558,131.847 163.249,132.369 163.863 C 132.586 164.118,133.397 165.288,134.172 166.463 C 134.946 167.638,136.451 169.860,137.514 171.400 C 138.578 172.940,141.163 176.720,143.259 179.800 C 145.355 182.880,148.173 187.020,149.520 189.000 C 150.868 190.980,152.121 192.780,152.306 193.000 C 152.491 193.220,154.773 196.550,157.377 200.400 C 164.091 210.325,164.430 210.587,167.000 207.826 C 167.220 207.590,168.345 206.685,169.500 205.816 C 172.385 203.645,172.108 202.310,167.500 196.200 C 165.956 194.152,163.600 190.745,163.189 189.966 C 162.909 189.435,162.566 188.910,162.426 188.800 C 162.287 188.690,161.511 187.610,160.702 186.400 C 159.893 185.190,157.692 181.950,155.810 179.200 C 153.928 176.450,151.359 172.670,150.102 170.800 C 148.844 168.930,147.665 167.220,147.481 167.000 C 147.077 166.517,143.397 161.197,138.765 154.400 C 135.482 149.584,133.014 145.989,128.603 139.600 C 127.463 137.950,124.575 133.720,122.184 130.200 C 119.793 126.680,116.531 121.910,114.935 119.600 C 113.340 117.290,110.687 113.420,109.040 111.000 C 107.393 108.580,105.170 105.340,104.100 103.800 C 103.031 102.260,100.620 98.750,98.743 96.000 C 96.865 93.250,94.521 89.830,93.534 88.400 C 83.118 73.319,82.291 71.693,81.593 64.930 C 81.398 63.047,81.186 61.463,81.120 61.411 C 80.810 61.163,78.544 60.916,78.100 61.081 M300.529 67.881 C 300.931 67.985,301.176 68.286,301.075 68.549 C 300.973 68.815,301.220 69.029,301.630 69.029 C 302.314 69.029,302.321 68.976,301.722 68.314 C 301.367 67.921,300.789 67.621,300.438 67.646 C 299.947 67.682,299.969 67.736,300.529 67.881 M304.171 70.020 C 304.171 70.443,304.533 70.809,305.049 70.907 C 306.061 71.101,305.960 70.417,304.878 69.742 C 304.301 69.381,304.171 69.432,304.171 70.020 M214.639 86.338 C 214.500 86.561,214.582 86.865,214.820 87.012 C 215.435 87.393,215.832 86.872,215.318 86.358 C 215.031 86.071,214.807 86.064,214.639 86.338 M46.000 110.973 C 46.000 111.995,45.795 112.411,45.200 112.600 C 44.751 112.742,44.376 113.237,44.345 113.727 C 44.314 114.207,44.249 115.050,44.199 115.600 C 44.150 116.150,44.085 116.926,44.055 117.324 C 44.025 117.722,43.829 117.942,43.620 117.812 C 42.787 117.298,42.500 119.293,42.500 125.600 C 42.500 131.743,42.735 133.417,43.680 134.036 C 44.036 134.269,44.318 135.700,44.372 137.537 C 44.390 138.124,44.699 138.553,45.200 138.684 C 45.718 138.819,46.000 139.230,46.000 139.847 C 46.000 140.371,46.360 141.160,46.800 141.600 C 47.240 142.040,47.600 142.760,47.600 143.200 C 47.600 143.733,47.867 144.000,48.400 144.000 C 48.940 144.000,49.200 144.267,49.200 144.819 C 49.200 145.270,49.624 146.035,50.142 146.519 C 50.660 147.004,51.033 147.735,50.971 148.145 C 50.902 148.601,51.152 148.967,51.616 149.088 C 52.032 149.197,52.475 149.608,52.600 150.000 C 52.725 150.392,53.186 150.808,53.625 150.922 C 54.064 151.037,54.396 151.282,54.364 151.466 C 54.109 152.917,54.466 154.000,55.200 154.000 C 55.745 154.000,56.000 154.267,56.000 154.837 C 56.000 155.338,56.321 155.759,56.800 155.884 C 57.243 156.000,57.600 156.430,57.600 156.847 C 57.600 157.261,57.842 157.600,58.137 157.600 C 59.105 157.600,67.803 166.525,70.027 169.800 C 71.222 171.560,72.297 173.090,72.415 173.200 C 72.534 173.310,73.417 174.570,74.379 176.000 C 75.340 177.430,77.056 179.950,78.192 181.600 C 79.329 183.250,81.672 186.670,83.399 189.200 C 85.127 191.730,87.287 194.880,88.200 196.200 C 89.112 197.520,91.269 200.670,92.993 203.200 C 94.716 205.730,96.876 208.880,97.793 210.200 C 98.710 211.520,101.052 214.940,102.997 217.800 C 106.328 222.699,108.534 225.895,111.376 229.943 C 112.049 230.902,112.870 232.109,113.200 232.627 C 113.530 233.144,115.134 235.510,116.764 237.884 C 118.394 240.258,120.772 243.741,122.048 245.624 C 125.734 251.061,126.588 251.391,128.423 248.087 C 128.877 247.269,129.867 245.725,130.624 244.655 C 132.691 241.733,133.180 242.820,123.493 228.800 C 122.049 226.710,118.377 221.358,115.334 216.906 C 112.290 212.454,109.398 208.224,108.907 207.506 C 108.416 206.788,107.876 206.020,107.707 205.800 C 107.338 205.319,104.156 200.680,100.362 195.090 C 93.294 184.677,91.121 181.502,86.611 175.000 C 84.898 172.530,83.755 170.853,82.385 168.800 C 82.165 168.470,81.343 167.300,80.559 166.200 C 79.775 165.100,77.621 161.950,75.773 159.200 C 71.401 152.696,68.124 147.901,67.708 147.400 C 67.526 147.180,65.652 144.480,63.544 141.400 C 58.475 133.992,55.509 129.633,52.828 125.654 C 51.590 123.817,50.081 119.929,48.968 115.713 C 47.337 109.530,47.284 109.360,47.241 110.124 C 47.218 110.522,47.017 110.734,46.793 110.596 C 46.570 110.458,46.491 110.177,46.617 109.972 C 46.744 109.768,46.657 109.600,46.424 109.600 C 46.191 109.600,46.000 110.218,46.000 110.973 M276.133 136.189 C 276.133 136.506,276.373 136.858,276.667 136.970 C 276.960 137.083,277.200 137.023,277.200 136.836 C 277.200 136.650,276.960 136.299,276.667 136.055 C 276.264 135.721,276.133 135.754,276.133 136.189 M277.613 143.867 C 277.620 144.050,277.888 144.547,278.209 144.971 C 278.896 145.879,279.562 145.464,278.957 144.505 C 278.497 143.775,277.593 143.346,277.613 143.867 M254.444 144.947 C 253.865 145.645,254.403 146.093,255.216 145.590 C 255.631 145.334,255.671 145.111,255.360 144.800 C 255.048 144.488,254.790 144.530,254.444 144.947 M280.003 152.789 C 279.528 153.090,279.508 153.268,279.903 153.663 C 280.177 153.937,280.414 154.079,280.431 153.980 C 280.447 153.881,280.522 153.485,280.595 153.100 C 280.751 152.288,280.776 152.301,280.003 152.789 M344.279 169.740 C 344.172 170.018,344.415 170.229,344.845 170.229 C 345.733 170.229,345.844 169.779,345.033 169.468 C 344.721 169.348,344.382 169.471,344.279 169.740 M272.511 174.018 C 272.120 174.487,270.994 175.432,270.009 176.117 C 269.024 176.803,267.944 177.586,267.609 177.857 C 267.274 178.128,265.924 179.215,264.608 180.272 C 256.935 186.436,249.006 194.983,243.710 202.800 C 241.143 206.589,238.400 211.110,238.400 211.553 C 238.400 211.740,238.080 212.321,237.688 212.846 C 237.086 213.652,235.783 216.352,232.594 223.400 C 223.478 243.544,222.507 274.710,230.254 298.526 C 233.227 307.668,240.037 322.023,242.683 324.729 C 242.967 325.019,243.200 325.392,243.200 325.557 C 243.200 326.217,246.847 329.608,248.421 330.411 C 250.629 331.537,253.665 331.562,256.125 330.474 C 258.502 329.423,258.498 328.978,256.078 325.200 C 230.467 285.218,231.048 240.273,257.631 205.000 C 262.286 198.823,270.875 189.827,276.069 185.689 C 278.128 184.049,278.669 183.158,279.048 180.787 C 279.274 179.378,279.212 179.200,278.496 179.200 C 277.890 179.200,277.623 178.850,277.426 177.800 C 277.282 177.030,276.988 176.400,276.773 176.400 C 276.559 176.400,276.178 175.950,275.927 175.400 C 275.677 174.850,275.243 174.400,274.964 174.400 C 274.685 174.400,274.179 174.122,273.840 173.782 C 273.283 173.226,273.152 173.249,272.511 174.018 M36.133 202.606 C 36.133 202.933,36.384 203.200,36.690 203.200 C 37.023 203.200,37.131 203.402,36.959 203.700 C 36.801 203.975,36.826 204.060,37.014 203.888 C 37.202 203.717,37.398 203.296,37.448 202.952 C 37.499 202.608,37.435 202.432,37.307 202.560 C 37.179 202.688,36.862 202.617,36.603 202.403 C 36.279 202.134,36.133 202.197,36.133 202.606 M116.211 319.522 C 115.957 319.776,116.363 320.400,116.781 320.400 C 116.964 320.400,117.207 320.160,117.319 319.867 C 117.509 319.371,116.634 319.099,116.211 319.522 M327.867 362.667 C 327.448 363.086,327.555 364.000,328.024 364.000 C 328.257 364.000,328.324 363.800,328.172 363.555 C 328.021 363.311,328.146 362.953,328.449 362.761 C 328.752 362.569,328.805 362.409,328.567 362.406 C 328.328 362.403,328.013 362.520,327.867 362.667 M166.159 374.467 C 166.045 374.650,166.218 374.800,166.543 374.800 C 166.868 374.800,167.220 375.025,167.326 375.300 C 167.432 375.575,167.501 375.425,167.479 374.967 C 167.440 374.147,166.562 373.814,166.159 374.467 M193.000 388.000 C 192.864 388.220,192.839 388.400,192.944 388.400 C 193.049 388.400,193.419 388.509,193.767 388.643 C 194.182 388.802,194.400 388.665,194.400 388.243 C 194.400 387.537,193.394 387.363,193.000 388.000 M281.088 389.886 C 281.197 390.169,281.427 390.400,281.600 390.400 C 281.773 390.400,282.003 390.169,282.112 389.886 C 282.227 389.586,282.013 389.371,281.600 389.371 C 281.187 389.371,280.973 389.586,281.088 389.886 " stroke="none" fill="#ec9b44" fill-rule="evenodd"></path><path id="path1" d="M316.500 1.065 C 316.225 1.176,316.000 1.522,316.000 1.833 C 316.000 2.208,315.551 2.400,314.672 2.400 C 313.809 2.400,313.053 2.715,312.511 3.300 C 312.052 3.795,311.120 4.692,310.439 5.294 C 309.757 5.895,309.200 6.639,309.200 6.947 C 309.200 7.255,308.840 7.601,308.400 7.716 C 307.643 7.914,307.600 8.262,307.600 14.200 C 307.600 20.138,307.643 20.486,308.400 20.684 C 308.840 20.799,309.200 21.195,309.200 21.563 C 309.200 22.296,311.754 25.200,312.399 25.200 C 312.620 25.200,312.800 25.380,312.800 25.600 C 312.800 25.820,313.160 26.000,313.600 26.000 C 314.040 26.000,314.400 26.249,314.400 26.553 C 314.400 27.390,315.715 27.589,321.300 27.595 C 324.105 27.598,326.400 27.762,326.400 27.961 C 326.400 28.646,328.929 29.200,332.056 29.200 C 334.760 29.200,335.262 29.310,335.693 30.000 C 336.079 30.618,336.626 30.800,338.093 30.800 C 339.560 30.800,340.107 30.982,340.493 31.600 C 340.865 32.197,341.426 32.400,342.696 32.400 C 344.133 32.400,344.400 32.525,344.400 33.200 C 344.400 33.867,344.667 34.000,346.000 34.000 C 347.315 34.000,347.600 34.138,347.600 34.773 C 347.600 35.207,347.968 35.663,348.439 35.813 C 348.901 35.959,349.621 36.421,350.039 36.839 C 350.458 37.258,351.139 37.600,351.553 37.600 C 351.970 37.600,352.400 37.957,352.516 38.400 C 352.641 38.879,353.062 39.200,353.563 39.200 C 354.133 39.200,354.400 39.455,354.400 40.000 C 354.400 40.517,354.667 40.800,355.153 40.800 C 355.570 40.800,356.000 41.157,356.116 41.600 C 356.231 42.040,356.612 42.400,356.963 42.400 C 357.333 42.400,357.600 42.735,357.600 43.200 C 357.600 43.733,357.867 44.000,358.400 44.000 C 358.933 44.000,359.200 44.267,359.200 44.800 C 359.200 45.250,359.467 45.600,359.810 45.600 C 360.145 45.600,360.591 46.050,360.800 46.600 C 361.009 47.150,361.432 47.600,361.740 47.600 C 362.049 47.600,362.414 48.168,362.553 48.864 C 362.692 49.560,363.164 50.380,363.603 50.687 C 364.041 50.994,364.400 51.505,364.400 51.823 C 364.400 52.140,364.760 52.400,365.200 52.400 C 365.863 52.400,366.000 52.667,366.000 53.953 C 366.000 55.170,366.173 55.552,366.800 55.716 C 367.436 55.882,367.600 56.262,367.600 57.563 C 367.600 58.933,367.730 59.200,368.400 59.200 C 369.105 59.200,369.200 59.467,369.200 61.436 C 369.200 63.176,369.376 63.819,369.994 64.336 C 370.648 64.883,370.794 65.527,370.825 68.000 C 370.865 71.126,371.398 73.600,372.031 73.600 C 372.236 73.600,372.400 75.716,372.400 78.350 C 372.400 83.691,372.665 85.600,373.407 85.600 C 373.685 85.600,374.023 86.036,374.156 86.569 C 374.462 87.788,377.496 90.800,378.417 90.800 C 378.796 90.800,379.201 91.160,379.316 91.600 C 379.641 92.842,391.959 92.842,392.284 91.600 C 392.399 91.160,392.723 90.800,393.004 90.800 C 393.588 90.800,396.000 88.655,396.000 88.136 C 396.000 87.947,396.360 87.568,396.800 87.293 C 397.310 86.974,397.600 86.360,397.600 85.597 C 397.600 84.933,397.957 84.043,398.400 83.600 C 399.745 82.255,399.525 71.200,398.153 71.200 C 397.714 71.200,397.600 70.250,397.600 66.600 C 397.600 62.533,397.507 61.907,396.800 61.200 C 396.275 60.675,396.000 59.867,396.000 58.850 C 396.000 56.291,395.542 54.710,394.739 54.500 C 394.136 54.342,394.000 53.912,394.000 52.167 C 394.000 50.438,393.847 49.946,393.200 49.600 C 392.607 49.282,392.400 48.762,392.400 47.586 C 392.400 46.267,392.265 46.000,391.600 46.000 C 390.936 46.000,390.800 45.733,390.800 44.427 C 390.800 43.205,390.621 42.797,390.000 42.600 C 389.399 42.409,389.200 41.995,389.200 40.936 C 389.200 39.885,389.006 39.474,388.438 39.326 C 387.949 39.198,387.582 38.629,387.416 37.742 C 387.273 36.981,386.903 36.261,386.593 36.142 C 386.284 36.023,385.928 35.602,385.802 35.206 C 385.676 34.810,385.239 34.399,384.829 34.292 C 384.400 34.180,383.972 33.582,383.818 32.882 C 383.671 32.214,383.292 31.567,382.976 31.446 C 382.659 31.324,382.400 30.843,382.400 30.375 C 382.400 29.862,382.083 29.442,381.600 29.316 C 381.157 29.200,380.800 28.770,380.800 28.353 C 380.800 27.867,380.517 27.600,380.000 27.600 C 379.467 27.600,379.200 27.333,379.200 26.800 C 379.200 26.267,378.933 26.000,378.400 26.000 C 377.867 26.000,377.600 25.733,377.600 25.200 C 377.600 24.751,377.333 24.400,376.991 24.400 C 376.657 24.400,376.178 23.950,375.927 23.400 C 375.677 22.850,375.140 22.400,374.736 22.400 C 374.267 22.400,374.000 22.110,374.000 21.600 C 374.000 21.067,373.733 20.800,373.200 20.800 C 372.667 20.800,372.400 20.533,372.400 20.000 C 372.400 19.483,372.133 19.200,371.647 19.200 C 371.230 19.200,370.800 18.843,370.684 18.400 C 370.559 17.921,370.138 17.600,369.637 17.600 C 369.177 17.600,368.800 17.349,368.800 17.043 C 368.800 16.431,367.959 16.000,366.767 16.000 C 366.345 16.000,366.000 15.726,366.000 15.390 C 366.000 15.055,365.575 14.618,365.055 14.421 C 364.535 14.223,364.004 13.787,363.876 13.453 C 363.747 13.118,363.019 12.727,362.258 12.584 C 361.371 12.418,360.802 12.051,360.674 11.562 C 360.533 11.022,360.118 10.800,359.252 10.800 C 358.438 10.800,357.885 10.532,357.600 10.000 C 357.282 9.407,356.762 9.200,355.586 9.200 C 354.267 9.200,354.000 9.065,354.000 8.400 C 354.000 7.736,353.733 7.600,352.427 7.600 C 351.205 7.600,350.797 7.421,350.600 6.800 C 350.384 6.118,349.995 6.000,347.973 6.000 C 345.867 6.000,345.600 5.910,345.600 5.200 C 345.600 4.609,345.313 4.384,344.500 4.338 C 340.302 4.101,339.790 4.001,339.294 3.321 C 338.845 2.707,338.029 2.580,333.784 2.467 C 330.026 2.367,328.800 2.207,328.800 1.814 C 328.800 0.914,318.438 0.283,316.500 1.065 M261.600 22.673 C 261.270 22.807,260.860 23.154,260.689 23.443 C 260.518 23.731,259.753 24.085,258.989 24.228 C 257.986 24.417,257.600 24.699,257.600 25.245 C 257.600 25.733,257.318 26.000,256.800 26.000 C 256.267 26.000,256.000 26.267,256.000 26.800 C 256.000 27.321,255.733 27.600,255.235 27.600 C 254.655 27.600,254.405 27.985,254.200 29.200 C 254.046 30.111,253.705 30.800,253.408 30.800 C 251.905 30.800,251.891 39.927,253.391 41.427 C 253.936 41.972,254.386 42.504,254.391 42.609 C 254.396 42.714,254.400 43.070,254.400 43.400 C 254.400 43.733,254.756 44.000,255.200 44.000 C 255.745 44.000,256.000 44.267,256.000 44.837 C 256.000 45.325,256.319 45.758,256.763 45.874 C 257.183 45.984,257.616 46.417,257.726 46.837 C 257.835 47.257,258.229 47.600,258.599 47.600 C 258.970 47.600,259.731 47.960,260.291 48.400 C 261.218 49.130,261.914 49.200,268.192 49.200 C 274.568 49.200,275.129 49.259,275.800 50.000 C 276.400 50.663,277.032 50.800,279.499 50.800 C 281.868 50.800,282.681 50.963,283.491 51.600 C 284.240 52.189,285.114 52.400,286.807 52.400 C 288.770 52.400,289.137 52.517,289.316 53.200 C 289.489 53.861,289.862 54.000,291.466 54.000 C 292.971 54.000,293.519 54.179,293.904 54.795 C 294.200 55.269,295.038 55.693,295.976 55.843 C 296.842 55.981,297.640 56.326,297.748 56.609 C 297.857 56.893,298.543 57.253,299.273 57.409 C 300.003 57.565,300.922 58.032,301.316 58.447 C 301.709 58.861,302.543 59.200,303.169 59.200 C 303.970 59.200,304.369 59.437,304.516 60.000 C 304.676 60.613,305.062 60.800,306.163 60.800 C 307.333 60.800,307.600 60.948,307.600 61.600 C 307.600 62.176,307.867 62.400,308.553 62.400 C 309.170 62.400,309.581 62.682,309.716 63.200 C 309.868 63.783,310.262 64.000,311.163 64.000 C 312.004 64.000,312.400 64.195,312.400 64.609 C 312.400 64.943,312.850 65.422,313.400 65.673 C 313.950 65.923,314.400 66.370,314.400 66.664 C 314.400 66.959,314.768 67.200,315.218 67.200 C 315.668 67.200,316.486 67.650,317.036 68.200 C 317.586 68.750,318.298 69.200,318.618 69.200 C 318.938 69.200,319.200 69.560,319.200 70.000 C 319.200 70.533,319.467 70.800,320.000 70.800 C 320.465 70.800,320.800 71.067,320.800 71.437 C 320.800 71.788,321.143 72.165,321.563 72.274 C 321.983 72.384,322.416 72.817,322.526 73.237 C 322.642 73.681,323.075 74.000,323.563 74.000 C 324.133 74.000,324.400 74.255,324.400 74.800 C 324.400 75.250,324.667 75.600,325.010 75.600 C 325.345 75.600,325.791 76.050,326.000 76.600 C 326.209 77.150,326.634 77.600,326.943 77.600 C 327.253 77.600,327.601 77.960,327.716 78.400 C 327.831 78.840,328.212 79.200,328.563 79.200 C 328.933 79.200,329.200 79.535,329.200 80.000 C 329.200 80.533,329.467 80.800,330.000 80.800 C 330.533 80.800,330.800 81.067,330.800 81.600 C 330.800 82.118,331.067 82.400,331.555 82.400 C 332.107 82.400,332.384 82.791,332.582 83.844 C 332.760 84.795,333.118 85.358,333.626 85.491 C 334.062 85.605,334.400 86.039,334.400 86.484 C 334.400 86.938,334.740 87.364,335.200 87.484 C 335.640 87.599,336.000 87.989,336.000 88.350 C 336.000 88.712,336.360 89.232,336.800 89.507 C 337.310 89.826,337.600 90.440,337.600 91.203 C 337.600 92.133,337.778 92.400,338.400 92.400 C 338.987 92.400,339.200 92.667,339.200 93.400 C 339.200 93.950,339.560 94.760,340.000 95.200 C 340.440 95.640,340.800 96.246,340.800 96.546 C 340.800 96.846,341.160 97.550,341.600 98.109 C 342.040 98.669,342.400 99.503,342.400 99.963 C 342.400 100.423,342.757 101.157,343.194 101.594 C 343.631 102.031,344.104 103.111,344.245 103.994 C 344.439 105.205,344.686 105.600,345.251 105.600 C 345.892 105.600,346.000 105.916,346.000 107.786 C 346.000 109.562,346.150 110.052,346.800 110.400 C 347.453 110.749,347.600 111.238,347.600 113.052 C 347.600 114.938,347.721 115.307,348.400 115.484 C 349.124 115.673,349.200 116.030,349.200 119.214 C 349.200 123.074,349.402 124.000,350.243 124.000 C 350.699 124.000,350.800 125.339,350.800 131.386 C 350.800 138.362,350.844 138.796,351.600 139.200 C 352.132 139.485,352.400 140.038,352.400 140.852 C 352.400 141.719,352.622 142.133,353.163 142.274 C 353.583 142.384,354.016 142.817,354.126 143.237 C 354.239 143.671,354.675 144.000,355.135 144.000 C 355.669 144.000,355.988 144.305,356.072 144.896 C 356.145 145.409,356.538 145.856,356.990 145.943 C 357.425 146.025,357.995 146.387,358.257 146.747 C 359.047 147.829,367.995 147.940,369.491 146.886 C 370.101 146.456,371.005 145.979,371.500 145.826 C 372.026 145.662,372.400 145.225,372.400 144.773 C 372.400 144.267,372.676 144.000,373.200 144.000 C 373.733 144.000,374.000 143.733,374.000 143.200 C 374.000 142.673,374.267 142.400,374.782 142.400 C 375.364 142.400,375.633 142.029,375.837 140.945 C 375.987 140.145,376.458 139.142,376.883 138.717 C 377.971 137.629,377.840 121.577,376.737 120.717 C 376.201 120.299,376.044 119.251,375.913 115.233 C 375.764 110.659,375.682 110.219,374.876 109.684 C 374.100 109.169,374.000 108.748,374.000 105.998 C 374.000 103.230,373.913 102.871,373.200 102.684 C 372.515 102.505,372.400 102.138,372.400 100.134 C 372.400 98.226,372.252 97.700,371.600 97.293 C 370.976 96.903,370.800 96.360,370.800 94.824 C 370.800 93.205,370.657 92.809,370.000 92.600 C 369.343 92.391,369.200 91.995,369.200 90.376 C 369.200 88.840,369.024 88.297,368.400 87.907 C 367.960 87.632,367.600 87.016,367.600 86.536 C 367.600 85.247,367.187 84.400,366.557 84.400 C 366.248 84.400,365.998 84.000,365.995 83.500 C 365.984 81.808,365.521 80.800,364.753 80.800 C 364.141 80.800,364.000 80.500,364.000 79.200 C 364.000 77.867,363.867 77.600,363.200 77.600 C 362.548 77.600,362.400 77.333,362.400 76.163 C 362.400 75.062,362.213 74.676,361.600 74.516 C 361.140 74.396,360.800 73.970,360.800 73.516 C 360.800 73.062,360.460 72.636,360.000 72.516 C 359.394 72.357,359.200 71.970,359.200 70.916 C 359.200 69.862,359.006 69.475,358.400 69.316 C 357.957 69.200,357.600 68.770,357.600 68.353 C 357.600 67.878,357.318 67.600,356.835 67.600 C 356.255 67.600,356.005 67.215,355.800 66.000 C 355.595 64.785,355.345 64.400,354.765 64.400 C 354.255 64.400,354.000 64.121,354.000 63.563 C 354.000 63.062,353.679 62.641,353.200 62.516 C 352.757 62.400,352.400 61.970,352.400 61.553 C 352.400 61.067,352.117 60.800,351.600 60.800 C 351.067 60.800,350.800 60.533,350.800 60.000 C 350.800 59.467,350.533 59.200,350.000 59.200 C 349.477 59.200,349.200 58.933,349.200 58.429 C 349.200 57.330,342.748 50.800,341.662 50.800 C 341.067 50.800,340.800 50.553,340.800 50.000 C 340.800 49.467,340.533 49.200,340.000 49.200 C 339.467 49.200,339.200 48.933,339.200 48.400 C 339.200 47.883,338.933 47.600,338.447 47.600 C 338.030 47.600,337.600 47.243,337.484 46.800 C 337.359 46.321,336.938 46.000,336.437 46.000 C 335.867 46.000,335.600 45.745,335.600 45.200 C 335.600 44.692,335.333 44.400,334.870 44.400 C 334.468 44.400,333.717 43.950,333.200 43.400 C 332.683 42.850,331.953 42.400,331.577 42.400 C 331.201 42.400,330.794 42.022,330.674 41.560 C 330.553 41.098,330.284 40.824,330.077 40.952 C 329.870 41.080,329.219 40.738,328.630 40.193 C 328.041 39.647,327.118 39.200,326.579 39.200 C 325.867 39.200,325.600 38.982,325.600 38.400 C 325.600 37.733,325.333 37.600,324.000 37.600 C 322.667 37.600,322.400 37.467,322.400 36.800 C 322.400 36.181,322.133 36.000,321.223 36.000 C 320.500 36.000,319.830 35.692,319.487 35.203 C 319.180 34.764,318.369 34.294,317.685 34.157 C 317.001 34.020,316.134 33.569,315.758 33.154 C 315.358 32.712,314.542 32.400,313.785 32.400 C 312.869 32.400,312.438 32.187,312.302 31.667 C 312.164 31.142,311.701 30.918,310.668 30.880 C 309.809 30.847,308.896 30.496,308.413 30.013 C 307.850 29.450,307.076 29.200,305.896 29.200 C 304.626 29.200,304.065 28.997,303.693 28.400 C 303.286 27.748,302.760 27.600,300.859 27.600 C 299.032 27.600,298.366 27.426,297.800 26.800 C 297.193 26.130,296.568 26.000,293.938 26.000 C 291.472 26.000,290.800 25.876,290.800 25.424 C 290.800 24.506,290.313 24.392,285.333 24.146 C 281.616 23.962,280.524 23.775,280.145 23.257 C 279.651 22.582,263.100 22.060,261.600 22.673 M31.200 252.671 C 31.200 252.863,30.392 253.376,29.404 253.810 C 28.265 254.311,27.606 254.856,27.604 255.300 C 27.601 255.732,27.294 256.000,26.800 256.000 C 26.267 256.000,26.000 256.267,26.000 256.800 C 26.000 257.333,25.733 257.600,25.200 257.600 C 24.760 257.600,24.400 257.780,24.400 258.000 C 24.400 258.220,24.040 258.760,23.600 259.200 C 23.160 259.640,22.912 260.000,23.049 260.000 C 23.186 260.000,23.095 260.244,22.848 260.542 C 22.019 261.541,22.436 283.294,23.300 284.158 C 23.790 284.647,24.000 285.491,24.000 286.970 C 24.000 291.457,24.455 294.000,25.257 294.000 C 25.920 294.000,26.000 294.349,26.000 297.237 C 26.000 300.138,26.083 300.497,26.800 300.684 C 27.485 300.863,27.600 301.230,27.600 303.233 C 27.600 305.162,27.740 305.647,28.400 306.000 C 29.038 306.342,29.200 306.838,29.200 308.452 C 29.200 310.138,29.333 310.510,30.000 310.684 C 30.613 310.845,30.801 311.232,30.805 312.347 C 30.813 314.391,31.200 315.600,31.847 315.600 C 32.211 315.600,32.400 316.071,32.400 316.977 C 32.400 317.881,32.664 318.539,33.166 318.891 C 33.587 319.186,34.057 320.096,34.210 320.914 C 34.415 322.006,34.689 322.400,35.245 322.400 C 35.859 322.400,36.000 322.698,36.000 324.000 C 36.000 325.333,36.133 325.600,36.800 325.600 C 37.379 325.600,37.600 325.867,37.600 326.567 C 37.600 327.948,37.998 328.800,38.643 328.800 C 38.970 328.800,39.200 329.212,39.200 329.800 C 39.200 330.533,39.413 330.800,40.000 330.800 C 40.587 330.800,40.800 331.067,40.800 331.800 C 40.800 332.350,41.160 333.160,41.600 333.600 C 42.040 334.040,42.400 334.574,42.400 334.786 C 42.400 334.998,42.748 335.358,43.173 335.586 C 43.598 335.813,44.060 336.359,44.200 336.800 C 44.340 337.240,44.802 337.600,45.227 337.600 C 45.816 337.600,46.000 337.880,46.000 338.777 C 46.000 339.456,46.307 340.176,46.726 340.477 C 47.126 340.765,47.570 341.315,47.714 341.700 C 47.857 342.085,48.251 342.400,48.587 342.400 C 48.933 342.400,49.200 342.748,49.200 343.200 C 49.200 343.733,49.467 344.000,50.000 344.000 C 50.531 344.000,50.800 344.267,50.800 344.792 C 50.800 345.293,51.150 345.673,51.750 345.823 C 52.310 345.964,52.680 346.337,52.650 346.731 C 52.620 347.140,52.949 347.449,53.500 347.528 C 54.078 347.610,54.400 347.932,54.400 348.428 C 54.400 348.933,54.676 349.200,55.200 349.200 C 55.733 349.200,56.000 349.467,56.000 350.000 C 56.000 350.533,56.267 350.800,56.800 350.800 C 57.252 350.800,57.600 351.067,57.600 351.413 C 57.600 351.749,57.915 352.143,58.300 352.286 C 58.685 352.430,59.235 352.874,59.523 353.274 C 59.824 353.693,60.544 354.000,61.223 354.000 C 62.130 354.000,62.400 354.182,62.400 354.792 C 62.400 355.304,62.754 355.674,63.400 355.836 C 63.950 355.974,64.400 356.343,64.400 356.656 C 64.400 356.969,64.701 357.341,65.069 357.482 C 65.438 357.623,66.068 358.068,66.469 358.469 C 66.871 358.871,67.650 359.200,68.200 359.200 C 68.933 359.200,69.200 359.413,69.200 360.000 C 69.200 360.587,69.467 360.800,70.200 360.800 C 70.788 360.800,71.200 361.030,71.200 361.357 C 71.200 362.002,72.052 362.400,73.433 362.400 C 74.133 362.400,74.400 362.621,74.400 363.200 C 74.400 363.867,74.667 364.000,76.000 364.000 C 77.302 364.000,77.600 364.141,77.600 364.755 C 77.600 365.311,77.994 365.585,79.086 365.790 C 79.904 365.943,80.814 366.413,81.109 366.834 C 81.461 367.336,82.119 367.600,83.023 367.600 C 83.929 367.600,84.400 367.789,84.400 368.153 C 84.400 368.800,85.609 369.187,87.653 369.195 C 88.768 369.199,89.155 369.387,89.316 370.000 C 89.477 370.617,89.862 370.800,90.999 370.800 C 91.868 370.800,92.892 371.129,93.491 371.600 C 94.240 372.189,95.114 372.400,96.807 372.400 C 98.770 372.400,99.137 372.517,99.316 373.200 C 99.503 373.917,99.862 374.000,102.763 374.000 C 105.658 374.000,106.000 374.079,106.000 374.748 C 106.000 375.639,107.607 375.989,111.729 375.996 C 113.554 375.999,114.646 376.189,115.028 376.571 C 116.238 377.781,139.913 378.065,140.309 376.874 C 140.405 376.585,140.915 376.184,141.442 375.984 C 142.017 375.765,142.400 375.296,142.400 374.810 C 142.400 374.267,142.663 374.000,143.200 374.000 C 143.733 374.000,144.000 373.733,144.000 373.200 C 144.000 372.682,144.267 372.400,144.757 372.400 C 145.547 372.400,146.000 371.664,146.000 370.381 C 146.000 369.967,146.360 369.435,146.800 369.200 C 147.528 368.810,147.600 368.362,147.600 364.200 C 147.600 360.038,147.528 359.590,146.800 359.200 C 146.360 358.965,146.000 358.541,146.000 358.259 C 146.000 357.314,140.749 352.400,139.740 352.400 C 139.206 352.400,138.800 352.161,138.800 351.847 C 138.800 350.973,137.461 350.811,130.162 350.805 C 123.836 350.800,123.270 350.740,122.600 350.000 C 121.995 349.331,121.368 349.200,118.785 349.200 C 116.030 349.200,115.671 349.113,115.484 348.400 C 115.307 347.723,114.938 347.600,113.084 347.600 C 111.230 347.600,110.861 347.477,110.684 346.800 C 110.520 346.174,110.138 346.000,108.926 346.000 C 107.892 346.000,107.159 345.744,106.717 345.229 C 106.343 344.792,105.265 344.339,104.229 344.183 C 103.153 344.022,102.400 343.698,102.400 343.397 C 102.400 342.801,101.520 342.400,100.214 342.400 C 99.630 342.400,99.217 342.108,99.084 341.600 C 98.959 341.121,98.538 340.800,98.037 340.800 C 97.577 340.800,96.840 340.440,96.400 340.000 C 95.960 339.560,95.261 339.200,94.847 339.200 C 94.430 339.200,94.000 338.843,93.884 338.400 C 93.724 337.787,93.338 337.600,92.237 337.600 C 91.067 337.600,90.800 337.452,90.800 336.800 C 90.800 336.283,90.533 336.000,90.047 336.000 C 89.630 336.000,89.200 335.643,89.084 335.200 C 88.957 334.714,88.538 334.400,88.018 334.400 C 87.547 334.400,86.745 333.950,86.235 333.400 C 85.725 332.850,85.014 332.400,84.654 332.400 C 84.267 332.400,84.000 332.074,84.000 331.600 C 84.000 331.067,83.733 330.800,83.200 330.800 C 82.735 330.800,82.400 330.533,82.400 330.163 C 82.400 329.812,82.040 329.431,81.600 329.316 C 81.160 329.201,80.800 328.841,80.800 328.516 C 80.800 328.191,80.446 327.833,80.013 327.719 C 79.581 327.606,79.118 327.173,78.986 326.757 C 78.854 326.341,78.398 326.000,77.973 326.000 C 77.532 326.000,77.200 325.726,77.200 325.363 C 77.200 325.012,76.857 324.635,76.437 324.526 C 76.017 324.416,75.584 323.983,75.474 323.563 C 75.365 323.143,74.988 322.800,74.637 322.800 C 74.274 322.800,74.000 322.468,74.000 322.027 C 74.000 321.602,73.659 321.146,73.243 321.014 C 72.827 320.882,72.394 320.419,72.281 319.987 C 72.167 319.554,71.809 319.200,71.484 319.200 C 71.159 319.200,70.799 318.840,70.684 318.400 C 70.569 317.960,70.188 317.600,69.837 317.600 C 69.467 317.600,69.200 317.265,69.200 316.800 C 69.200 316.267,68.933 316.000,68.400 316.000 C 67.876 316.000,67.600 315.733,67.600 315.227 C 67.600 314.802,67.246 314.342,66.814 314.204 C 66.308 314.044,65.932 313.446,65.760 312.526 C 65.588 311.612,65.223 311.026,64.746 310.902 C 64.336 310.794,64.000 310.368,64.000 309.953 C 64.000 309.467,63.717 309.200,63.200 309.200 C 62.548 309.200,62.400 308.933,62.400 307.763 C 62.400 306.662,62.213 306.276,61.600 306.116 C 61.160 306.001,60.800 305.580,60.800 305.180 C 60.800 304.781,60.440 304.340,60.000 304.200 C 59.399 304.009,59.200 303.595,59.200 302.536 C 59.200 301.462,59.009 301.075,58.400 300.916 C 57.794 300.757,57.600 300.370,57.600 299.316 C 57.600 298.262,57.406 297.875,56.800 297.716 C 56.203 297.560,56.000 297.170,56.000 296.182 C 56.000 295.246,55.707 294.628,55.000 294.071 C 54.187 293.432,54.000 292.934,54.000 291.405 C 54.000 289.862,53.857 289.488,53.200 289.316 C 52.523 289.139,52.400 288.770,52.400 286.916 C 52.400 285.062,52.277 284.693,51.600 284.516 C 50.884 284.329,50.800 283.970,50.800 281.116 C 50.800 278.294,50.710 277.902,50.023 277.722 C 49.294 277.531,49.239 277.049,49.123 269.727 C 49.015 262.854,48.917 261.874,48.300 261.423 C 47.915 261.142,47.600 260.451,47.600 259.889 C 47.600 258.487,47.214 257.600,46.604 257.600 C 46.323 257.600,45.999 257.240,45.884 256.800 C 45.759 256.321,45.338 256.000,44.837 256.000 C 44.267 256.000,44.000 255.745,44.000 255.200 C 44.000 254.760,43.737 254.400,43.416 254.400 C 43.094 254.400,42.454 253.995,41.993 253.500 C 41.117 252.560,31.200 251.798,31.200 252.671 M7.726 308.362 C 7.600 308.841,7.036 309.217,6.208 309.372 C 5.234 309.555,4.758 309.935,4.390 310.825 C 4.115 311.488,3.555 312.210,3.145 312.429 C 2.735 312.649,2.400 313.117,2.400 313.470 C 2.400 313.823,2.085 314.342,1.700 314.623 C 0.524 315.482,0.415 331.528,1.578 332.580 C 2.287 333.222,2.400 333.801,2.400 336.808 C 2.400 339.742,2.533 340.461,3.240 341.360 C 3.702 341.948,4.123 343.097,4.175 343.914 C 4.227 344.731,4.299 345.793,4.335 346.273 C 4.371 346.757,4.756 347.259,5.200 347.400 C 5.869 347.612,6.000 348.005,6.000 349.800 C 6.000 351.595,6.131 351.988,6.800 352.200 C 7.416 352.395,7.600 352.805,7.600 353.980 C 7.600 355.170,7.776 355.553,8.400 355.716 C 9.018 355.877,9.200 356.262,9.200 357.400 C 9.200 358.538,9.382 358.923,10.000 359.084 C 10.508 359.217,10.800 359.630,10.800 360.214 C 10.800 361.551,11.205 362.400,11.843 362.400 C 12.347 362.400,12.575 362.891,12.447 363.700 C 12.421 363.865,12.641 364.000,12.936 364.000 C 13.489 364.000,14.400 365.613,14.400 366.592 C 14.400 366.897,14.760 367.260,15.200 367.400 C 15.640 367.540,16.000 368.002,16.000 368.427 C 16.000 368.933,16.276 369.200,16.800 369.200 C 17.383 369.200,17.600 369.467,17.600 370.184 C 17.600 370.726,17.931 371.491,18.336 371.884 C 18.741 372.278,19.185 372.915,19.323 373.300 C 19.462 373.685,19.830 374.000,20.141 374.000 C 20.452 374.000,20.801 374.360,20.916 374.800 C 21.031 375.240,21.400 375.600,21.736 375.600 C 22.071 375.600,22.457 375.951,22.594 376.380 C 22.730 376.808,23.172 377.264,23.577 377.393 C 23.982 377.521,24.406 377.981,24.519 378.413 C 24.633 378.846,25.012 379.200,25.363 379.200 C 25.713 379.200,26.000 379.476,26.000 379.813 C 26.000 380.149,26.315 380.538,26.700 380.677 C 27.085 380.815,27.722 381.259,28.116 381.664 C 28.509 382.069,29.274 382.400,29.816 382.400 C 30.533 382.400,30.800 382.617,30.800 383.200 C 30.800 383.724,31.067 384.000,31.573 384.000 C 31.998 384.000,32.460 384.360,32.600 384.800 C 32.740 385.240,33.084 385.600,33.365 385.600 C 33.646 385.600,34.399 386.050,35.038 386.600 C 35.677 387.149,36.515 387.599,36.900 387.600 C 37.285 387.600,37.600 387.851,37.600 388.157 C 37.600 388.795,38.449 389.200,39.786 389.200 C 40.370 389.200,40.783 389.492,40.916 390.000 C 41.082 390.636,41.462 390.800,42.763 390.800 C 44.133 390.800,44.400 390.930,44.400 391.600 C 44.400 392.263,44.667 392.400,45.953 392.400 C 47.170 392.400,47.552 392.573,47.716 393.200 C 47.893 393.878,48.262 394.000,50.136 394.000 C 51.948 394.000,52.389 394.135,52.585 394.752 C 52.830 395.526,54.321 396.000,56.506 396.000 C 57.193 396.000,57.932 396.301,58.224 396.700 C 58.629 397.254,59.474 397.429,62.268 397.539 C 64.835 397.640,66.003 397.859,66.542 398.339 C 67.696 399.367,84.622 399.332,85.376 398.300 C 85.658 397.915,86.189 397.600,86.557 397.600 C 86.924 397.600,87.327 397.334,87.452 397.008 C 87.577 396.683,88.300 396.033,89.059 395.564 C 89.926 395.028,90.521 394.296,90.662 393.591 C 90.790 392.952,91.211 392.386,91.643 392.273 C 92.846 391.958,92.806 379.631,91.600 379.316 C 91.157 379.200,90.800 378.770,90.800 378.353 C 90.800 377.867,90.517 377.600,90.000 377.600 C 89.467 377.600,89.200 377.333,89.200 376.800 C 89.200 376.267,88.933 376.000,88.400 376.000 C 87.878 376.000,87.600 375.733,87.600 375.232 C 87.600 374.703,87.225 374.381,86.400 374.200 C 85.740 374.055,85.200 373.788,85.200 373.607 C 85.200 372.794,82.247 372.400,76.160 372.400 C 70.400 372.400,69.595 372.319,69.253 371.709 C 68.952 371.171,68.176 370.984,65.737 370.861 C 63.244 370.735,62.500 370.550,62.081 369.951 C 61.688 369.391,61.059 369.200,59.604 369.200 C 58.005 369.200,57.608 369.056,57.400 368.400 C 57.205 367.784,56.795 367.600,55.620 367.600 C 54.430 367.600,54.047 367.424,53.884 366.800 C 53.724 366.187,53.338 366.000,52.237 366.000 C 51.067 366.000,50.800 365.852,50.800 365.200 C 50.800 364.663,50.533 364.400,49.987 364.400 C 49.541 364.400,49.073 364.135,48.949 363.812 C 48.825 363.489,48.112 363.003,47.363 362.732 C 46.615 362.462,45.900 361.916,45.775 361.520 C 45.649 361.124,45.198 360.800,44.773 360.800 C 44.267 360.800,44.000 360.524,44.000 360.000 C 44.000 359.467,43.733 359.200,43.200 359.200 C 42.667 359.200,42.400 358.933,42.400 358.400 C 42.400 357.867,42.133 357.600,41.600 357.600 C 41.067 357.600,40.800 357.333,40.800 356.800 C 40.800 356.267,40.533 356.000,40.000 356.000 C 39.467 356.000,39.200 355.733,39.200 355.200 C 39.200 354.760,38.938 354.400,38.619 354.400 C 38.299 354.400,37.739 353.770,37.373 353.000 C 37.008 352.230,36.564 351.600,36.386 351.600 C 36.209 351.600,35.945 351.060,35.800 350.400 C 35.619 349.575,35.297 349.200,34.768 349.200 C 34.153 349.200,34.000 348.914,34.000 347.763 C 34.000 346.662,33.813 346.276,33.200 346.116 C 32.576 345.953,32.400 345.570,32.400 344.380 C 32.400 343.205,32.216 342.795,31.600 342.600 C 30.943 342.391,30.800 341.995,30.800 340.376 C 30.800 338.840,30.624 338.297,30.000 337.907 C 29.328 337.487,29.200 336.974,29.200 334.700 C 29.200 332.487,29.054 331.867,28.400 331.307 C 27.659 330.673,27.600 330.127,27.600 323.944 C 27.600 316.959,27.474 316.000,26.557 316.000 C 26.196 316.000,25.998 315.542,25.994 314.700 C 25.987 313.153,25.530 312.312,24.787 312.479 C 24.490 312.545,24.177 312.279,24.092 311.886 C 23.893 310.977,22.131 309.200,21.428 309.200 C 21.134 309.200,20.799 308.840,20.684 308.400 C 20.368 307.190,8.042 307.154,7.726 308.362 " stroke="none" fill="#5cb3ec" fill-rule="evenodd"></path><path id="path2" d="M150.514 18.366 C 150.176 18.908,149.421 19.146,147.626 19.276 C 146.039 19.390,145.024 19.673,144.698 20.092 C 144.424 20.444,143.840 20.800,143.400 20.882 C 142.948 20.966,142.623 21.322,142.653 21.700 C 142.682 22.068,142.592 22.354,142.453 22.337 C 142.314 22.320,142.065 22.349,141.900 22.403 C 141.735 22.456,141.465 22.531,141.300 22.570 C 140.051 22.860,139.223 23.314,139.405 23.609 C 139.666 24.030,138.214 24.881,137.853 24.519 C 137.714 24.380,137.600 24.636,137.600 25.087 C 137.600 25.570,137.272 25.993,136.800 26.116 C 136.360 26.231,136.000 26.612,136.000 26.963 C 136.000 27.525,135.562 27.768,134.742 27.661 C 134.600 27.643,134.366 28.256,134.222 29.023 C 134.078 29.790,133.609 30.637,133.180 30.905 C 132.731 31.186,132.400 31.834,132.400 32.434 C 132.400 33.007,132.080 33.766,131.688 34.120 C 130.464 35.229,130.512 39.583,131.760 40.600 C 132.570 41.260,132.822 41.989,133.199 44.767 C 133.797 49.167,135.939 53.631,140.893 60.800 C 142.945 63.770,146.408 68.810,148.589 72.000 C 150.770 75.190,153.677 79.420,155.048 81.400 C 156.420 83.380,159.442 87.790,161.764 91.200 C 164.085 94.610,167.418 99.470,169.171 102.000 C 170.924 104.530,173.890 108.850,175.762 111.600 C 183.146 122.447,186.751 127.698,187.701 128.991 C 187.866 129.216,188.618 130.300,189.371 131.400 C 193.732 137.772,197.997 144.026,201.100 148.600 C 204.203 153.173,205.717 155.379,211.000 163.017 C 214.575 168.187,216.818 171.581,217.039 172.157 C 217.297 172.830,216.248 174.800,215.632 174.800 C 215.439 174.800,214.097 175.520,212.648 176.400 C 208.588 178.866,208.975 179.134,202.267 169.200 C 197.250 161.771,193.060 155.663,192.524 154.998 C 192.346 154.777,190.683 152.347,188.829 149.598 C 181.862 139.270,177.918 133.515,177.594 133.200 C 177.480 133.090,176.310 131.404,174.994 129.453 C 173.677 127.503,171.777 124.713,170.772 123.253 C 167.416 118.384,162.412 111.038,160.108 107.600 C 158.855 105.730,157.723 104.110,157.592 104.000 C 157.461 103.890,155.398 100.920,153.008 97.400 C 150.618 93.880,147.310 89.020,145.657 86.600 C 144.005 84.180,141.562 80.580,140.229 78.600 C 138.897 76.620,137.587 74.730,137.320 74.400 C 134.206 70.553,129.154 62.032,127.845 58.422 C 127.402 57.200,126.914 56.110,126.761 56.000 C 126.608 55.890,126.272 55.017,126.015 54.060 C 125.632 52.635,125.408 52.357,124.774 52.523 C 124.008 52.723,123.730 51.828,123.991 50.000 C 124.038 49.670,123.942 49.532,123.779 49.693 C 123.397 50.069,121.944 48.414,122.238 47.938 C 122.360 47.741,122.311 47.606,122.130 47.637 C 121.240 47.792,120.800 47.531,120.800 46.850 C 120.800 46.333,120.419 46.024,119.573 45.855 C 118.892 45.718,118.458 45.430,118.597 45.205 C 118.735 44.982,118.668 44.800,118.448 44.800 C 118.229 44.800,117.454 44.256,116.726 43.592 C 115.999 42.927,115.132 42.408,114.802 42.438 C 113.698 42.538,112.590 42.341,113.100 42.135 C 113.375 42.024,113.600 41.774,113.600 41.579 C 113.600 41.384,113.330 41.329,113.000 41.455 C 112.670 41.582,112.400 41.486,112.400 41.243 C 112.400 40.973,111.547 40.800,110.220 40.800 C 108.585 40.800,107.945 40.630,107.660 40.121 C 107.057 39.043,101.008 38.992,99.945 40.055 C 99.377 40.623,98.588 40.837,96.999 40.856 C 95.232 40.878,94.783 41.024,94.587 41.641 C 94.454 42.059,94.007 42.400,93.592 42.400 C 92.379 42.400,90.752 43.298,90.964 43.851 C 91.082 44.159,90.941 44.276,90.606 44.147 C 90.301 44.030,89.648 44.399,89.154 44.967 C 88.660 45.535,87.948 46.000,87.573 46.000 C 87.197 46.000,86.471 46.527,85.958 47.170 C 85.446 47.814,84.886 48.253,84.713 48.147 C 84.429 47.971,84.238 48.972,84.297 50.327 C 84.310 50.616,84.224 50.758,84.107 50.641 C 83.686 50.220,82.340 51.267,82.561 51.843 C 82.704 52.214,82.425 52.563,81.792 52.803 C 80.953 53.122,80.798 53.444,80.787 54.890 C 80.776 56.399,79.998 58.263,79.560 57.828 C 79.472 57.741,79.364 58.463,79.320 59.434 C 79.246 61.063,79.316 61.200,80.220 61.200 C 80.759 61.200,81.203 61.245,81.207 61.300 C 81.908 71.156,82.455 72.359,93.534 88.400 C 94.521 89.830,96.865 93.250,98.743 96.000 C 100.620 98.750,103.031 102.260,104.100 103.800 C 105.170 105.340,107.393 108.580,109.040 111.000 C 110.687 113.420,113.340 117.290,114.935 119.600 C 116.531 121.910,119.793 126.680,122.184 130.200 C 124.575 133.720,127.463 137.950,128.603 139.600 C 133.014 145.989,135.482 149.584,138.765 154.400 C 143.397 161.197,147.077 166.517,147.481 167.000 C 147.665 167.220,148.844 168.930,150.102 170.800 C 151.359 172.670,153.928 176.450,155.810 179.200 C 157.692 181.950,159.893 185.190,160.702 186.400 C 161.511 187.610,162.287 188.690,162.426 188.800 C 162.566 188.910,162.909 189.435,163.189 189.966 C 163.600 190.745,165.956 194.152,167.500 196.200 C 172.108 202.310,172.385 203.645,169.500 205.816 C 168.345 206.685,167.220 207.590,167.000 207.826 C 164.430 210.587,164.091 210.325,157.377 200.400 C 154.773 196.550,152.491 193.220,152.306 193.000 C 152.121 192.780,150.868 190.980,149.520 189.000 C 148.173 187.020,145.355 182.880,143.259 179.800 C 141.163 176.720,138.578 172.940,137.514 171.400 C 136.451 169.860,134.946 167.638,134.172 166.463 C 133.397 165.288,132.586 164.118,132.369 163.863 C 131.847 163.249,127.918 157.558,123.075 150.400 C 117.661 142.399,112.923 135.479,112.529 134.998 C 112.348 134.777,111.105 132.977,109.767 130.998 C 108.429 129.019,106.108 125.600,104.609 123.400 C 103.110 121.200,100.965 118.050,99.842 116.400 C 98.719 114.750,97.665 113.220,97.499 113.000 C 96.442 111.592,93.437 107.269,91.396 104.218 C 88.345 99.657,83.244 94.042,79.104 90.689 L 77.239 89.178 70.396 89.220 C 64.198 89.258,63.603 89.322,64.077 89.896 C 64.546 90.465,64.500 90.478,63.639 90.019 C 62.798 89.570,62.709 89.587,62.927 90.153 C 63.156 90.750,62.046 91.083,60.658 90.833 C 60.117 90.736,59.186 91.654,59.428 92.045 C 59.549 92.240,59.218 92.400,58.693 92.400 C 58.169 92.400,57.317 92.850,56.800 93.400 C 56.283 93.950,55.532 94.400,55.130 94.400 C 54.667 94.400,54.400 94.692,54.400 95.200 C 54.400 95.754,54.133 96.000,53.533 96.000 C 53.057 96.000,52.776 96.109,52.909 96.243 C 53.043 96.376,52.977 96.691,52.762 96.943 C 52.548 97.194,52.108 97.760,51.785 98.200 C 51.238 98.946,51.216 98.948,51.467 98.234 C 51.662 97.680,51.597 97.555,51.233 97.780 C 50.957 97.950,50.819 98.430,50.928 98.845 C 51.050 99.314,50.917 99.600,50.577 99.600 C 49.927 99.600,49.200 100.829,49.200 101.927 C 49.200 102.370,48.855 102.797,48.400 102.916 C 47.710 103.096,47.600 103.462,47.600 105.563 C 47.600 107.379,47.458 108.000,47.043 108.000 C 46.363 108.000,45.785 109.328,46.380 109.527 C 46.614 109.605,46.711 109.821,46.596 110.007 C 46.481 110.193,46.570 110.458,46.793 110.596 C 47.017 110.734,47.218 110.522,47.241 110.124 C 47.284 109.360,47.337 109.530,48.968 115.713 C 50.106 120.024,51.599 123.835,52.902 125.754 C 53.367 126.439,54.072 127.484,54.468 128.075 C 57.327 132.347,67.321 146.934,67.708 147.400 C 68.124 147.901,71.401 152.696,75.773 159.200 C 77.621 161.950,79.775 165.100,80.559 166.200 C 81.343 167.300,82.165 168.470,82.385 168.800 C 83.755 170.853,84.898 172.530,86.611 175.000 C 91.121 181.502,93.294 184.677,100.362 195.090 C 104.156 200.680,107.338 205.319,107.707 205.800 C 107.876 206.020,108.416 206.788,108.907 207.506 C 109.398 208.224,112.290 212.454,115.334 216.906 C 118.377 221.358,122.049 226.710,123.493 228.800 C 133.180 242.820,132.691 241.733,130.624 244.655 C 129.867 245.725,128.877 247.269,128.423 248.087 C 126.588 251.391,125.734 251.061,122.048 245.624 C 120.772 243.741,118.394 240.258,116.764 237.884 C 115.134 235.510,113.530 233.144,113.200 232.627 C 112.870 232.109,112.049 230.902,111.376 229.943 C 108.534 225.895,106.328 222.699,102.997 217.800 C 101.052 214.940,98.710 211.520,97.793 210.200 C 96.876 208.880,94.716 205.730,92.993 203.200 C 91.269 200.670,89.112 197.520,88.200 196.200 C 87.287 194.880,85.127 191.730,83.399 189.200 C 81.672 186.670,79.329 183.250,78.192 181.600 C 77.056 179.950,75.340 177.430,74.379 176.000 C 73.417 174.570,72.534 173.310,72.415 173.200 C 72.297 173.090,71.222 171.560,70.027 169.800 C 67.835 166.573,59.111 157.600,58.164 157.600 C 57.884 157.600,57.535 157.224,57.389 156.765 C 57.019 155.599,44.615 155.718,43.310 156.900 C 42.885 157.285,41.968 157.600,41.272 157.600 C 40.440 157.600,39.836 157.874,39.507 158.400 C 39.232 158.840,38.734 159.200,38.400 159.200 C 38.066 159.200,37.583 159.535,37.328 159.944 C 37.073 160.353,36.297 160.801,35.605 160.939 C 34.913 161.077,34.442 161.344,34.558 161.532 C 34.674 161.719,34.231 162.270,33.573 162.757 C 32.916 163.243,32.475 163.798,32.595 163.992 C 32.714 164.185,32.404 164.401,31.906 164.472 C 31.331 164.553,31.020 164.856,31.056 165.300 C 31.086 165.685,30.872 166.000,30.579 166.000 C 30.287 166.000,29.919 166.208,29.762 166.462 C 29.591 166.737,29.651 166.815,29.911 166.655 C 30.149 166.508,30.458 166.570,30.596 166.793 C 30.734 167.017,30.489 167.200,30.050 167.200 C 29.478 167.200,29.217 167.510,29.127 168.300 C 29.051 168.955,28.757 169.400,28.400 169.400 C 27.943 169.400,27.772 169.997,27.681 171.900 C 27.582 173.983,27.443 174.400,26.852 174.400 C 25.687 174.400,25.607 183.342,26.764 184.316 C 27.383 184.837,27.595 185.544,27.656 187.282 C 27.705 188.684,27.890 189.468,28.136 189.316 C 28.379 189.166,28.429 189.348,28.263 189.779 C 28.061 190.307,28.146 190.429,28.595 190.257 C 29.051 190.082,29.200 190.317,29.200 191.213 C 29.200 191.893,29.414 192.403,29.700 192.406 C 30.082 192.411,30.087 192.484,29.721 192.717 C 29.257 193.012,29.609 194.106,30.145 194.034 C 30.963 193.925,31.138 194.082,31.000 194.800 C 30.862 195.518,31.037 195.675,31.855 195.566 C 32.283 195.509,32.787 196.548,32.794 197.500 C 32.798 198.037,33.046 198.400,33.410 198.400 C 33.768 198.400,34.119 198.896,34.260 199.600 C 34.424 200.421,34.737 200.800,35.250 200.800 C 35.901 200.800,36.204 201.431,36.056 202.475 C 36.034 202.627,36.348 202.687,36.753 202.609 C 37.231 202.517,37.490 202.701,37.490 203.134 C 37.490 205.038,37.661 205.523,38.400 205.716 C 38.849 205.833,39.200 206.262,39.200 206.693 C 39.200 207.115,39.637 207.871,40.171 208.373 C 40.705 208.875,41.054 209.514,40.947 209.793 C 40.834 210.089,41.164 210.405,41.739 210.549 C 42.485 210.736,42.675 210.993,42.516 211.598 C 42.393 212.068,42.503 212.400,42.782 212.400 C 43.266 212.400,44.440 213.397,44.414 213.786 C 44.317 215.242,44.468 215.624,45.100 215.518 C 45.603 215.433,45.836 215.709,45.927 216.500 C 46.016 217.277,46.280 217.600,46.827 217.600 C 47.448 217.600,47.600 217.883,47.600 219.037 C 47.600 220.138,47.787 220.524,48.400 220.684 C 48.843 220.800,49.200 221.230,49.200 221.647 C 49.200 222.133,49.483 222.400,50.000 222.400 C 50.587 222.400,50.800 222.667,50.800 223.400 C 50.800 223.950,50.999 224.400,51.243 224.400 C 51.486 224.400,51.582 224.670,51.455 225.000 C 51.315 225.365,51.455 225.600,51.813 225.600 C 52.136 225.600,52.400 225.864,52.400 226.186 C 52.400 226.759,53.731 227.735,54.062 227.405 C 54.153 227.313,54.263 227.590,54.305 228.019 C 54.471 229.726,54.546 229.957,54.867 229.759 C 55.050 229.645,55.200 229.754,55.200 230.000 C 55.200 230.246,55.408 230.319,55.662 230.162 C 55.937 229.991,56.015 230.051,55.855 230.311 C 55.708 230.549,55.762 230.853,55.976 230.985 C 56.190 231.117,56.264 231.490,56.140 231.813 C 55.988 232.207,56.175 232.400,56.707 232.400 C 57.266 232.400,57.570 232.750,57.737 233.587 C 57.868 234.241,58.347 235.147,58.802 235.602 C 59.257 236.057,59.530 236.590,59.409 236.786 C 59.288 236.982,59.551 237.257,59.994 237.398 C 60.437 237.539,60.800 237.974,60.800 238.365 C 60.800 238.756,61.144 239.387,61.564 239.767 C 61.984 240.148,62.440 240.903,62.576 241.446 C 62.712 241.989,62.997 242.325,63.210 242.194 C 63.423 242.062,63.806 242.415,64.063 242.977 C 64.319 243.540,64.860 244.000,65.264 244.000 C 65.985 244.000,66.204 244.744,66.014 246.544 C 65.970 246.958,66.114 247.177,66.340 247.037 C 66.810 246.747,68.068 248.367,67.760 248.865 C 67.646 249.049,67.913 249.200,68.352 249.200 C 68.987 249.200,69.177 249.508,69.276 250.700 C 69.373 251.871,69.554 252.174,70.100 252.082 C 70.725 251.977,71.019 252.613,70.847 253.700 C 70.821 253.865,71.160 254.000,71.600 254.000 C 72.040 254.000,72.422 254.180,72.450 254.400 C 72.478 254.620,72.545 254.980,72.600 255.200 C 72.655 255.420,72.745 255.690,72.800 255.800 C 72.855 255.910,72.931 256.225,72.968 256.500 C 73.006 256.775,73.257 256.954,73.528 256.897 C 73.798 256.840,74.126 257.328,74.256 257.981 C 74.387 258.634,74.608 259.154,74.747 259.137 C 75.675 259.021,76.000 259.344,76.000 260.386 C 76.000 261.162,76.276 261.720,76.800 262.000 C 77.240 262.235,77.600 262.782,77.600 263.214 C 77.600 263.733,77.871 264.000,78.400 264.000 C 78.916 264.000,79.200 264.267,79.200 264.751 C 79.200 265.164,79.568 265.749,80.019 266.051 C 80.488 266.366,80.876 267.112,80.928 267.800 C 80.996 268.694,81.221 269.002,81.810 269.009 C 82.324 269.016,82.561 269.253,82.487 269.689 C 82.425 270.057,82.720 270.543,83.141 270.769 C 83.828 271.136,84.636 272.923,84.466 273.700 C 84.430 273.865,84.535 273.979,84.700 273.953 C 85.563 273.816,85.957 274.088,86.072 274.900 C 86.142 275.395,86.410 275.800,86.667 275.800 C 87.403 275.800,87.649 276.224,87.687 277.565 C 87.706 278.250,87.806 278.727,87.909 278.625 C 88.216 278.317,89.200 279.495,89.200 280.171 C 89.200 280.533,89.539 280.800,90.000 280.800 C 90.580 280.800,90.800 281.067,90.800 281.771 C 90.800 282.809,91.846 284.142,92.395 283.803 C 92.577 283.691,92.635 283.944,92.525 284.365 C 92.394 284.865,92.607 285.283,93.135 285.565 C 93.865 285.956,94.511 287.127,94.590 288.200 C 94.606 288.420,94.930 288.575,95.310 288.544 C 95.941 288.494,96.183 289.063,96.040 290.257 C 96.010 290.508,96.286 290.688,96.654 290.657 C 97.081 290.621,97.443 291.034,97.654 291.800 C 97.835 292.459,98.267 293.206,98.614 293.460 C 98.960 293.713,99.272 294.298,99.307 294.760 C 99.342 295.222,99.600 295.600,99.880 295.600 C 100.160 295.600,100.645 296.212,100.957 296.959 C 101.269 297.707,101.828 298.488,102.198 298.695 C 102.569 298.902,102.856 299.191,102.836 299.336 C 102.672 300.543,102.861 300.877,103.601 300.684 C 104.041 300.569,104.310 300.622,104.199 300.801 C 103.827 301.403,104.478 302.400,105.243 302.400 C 105.860 302.400,106.000 302.697,106.000 304.000 C 106.000 304.880,106.135 305.579,106.300 305.553 C 107.173 305.415,107.600 305.678,107.600 306.353 C 107.600 306.770,107.957 307.200,108.400 307.316 C 108.853 307.434,109.222 307.888,109.250 308.363 C 109.330 309.700,109.354 309.754,110.315 310.715 C 110.818 311.218,111.122 311.803,110.991 312.015 C 110.860 312.227,111.123 312.400,111.576 312.400 C 112.133 312.400,112.400 312.659,112.400 313.200 C 112.400 313.640,112.599 314.000,112.843 314.000 C 113.086 314.000,113.179 314.277,113.050 314.615 C 112.912 314.972,113.075 315.331,113.437 315.470 C 113.781 315.601,114.230 316.153,114.436 316.695 C 114.679 317.334,115.021 317.601,115.406 317.453 C 115.848 317.284,116.000 317.524,116.000 318.390 C 116.000 319.292,116.161 319.523,116.714 319.417 C 117.409 319.283,117.533 319.595,117.621 321.700 C 117.638 322.116,117.964 322.400,118.425 322.400 C 118.933 322.400,119.200 322.675,119.200 323.200 C 119.200 323.640,119.515 324.323,119.900 324.717 C 121.294 326.146,121.875 326.996,121.200 326.618 C 120.702 326.340,120.688 326.377,121.120 326.841 C 121.406 327.149,121.856 327.404,122.120 327.409 C 122.384 327.414,122.549 327.720,122.487 328.088 C 122.386 328.692,123.675 329.792,124.047 329.419 C 124.131 329.335,124.238 329.702,124.283 330.233 C 124.452 332.189,124.548 332.400,125.267 332.400 C 125.733 332.400,126.000 332.691,126.000 333.200 C 126.000 333.733,126.267 334.000,126.800 334.000 C 127.561 334.000,127.856 334.959,127.630 336.700 C 127.594 336.975,127.933 337.200,128.382 337.200 C 128.946 337.200,129.200 337.461,129.200 338.037 C 129.200 338.525,129.519 338.958,129.963 339.074 C 130.708 339.269,131.348 340.499,131.226 341.500 C 131.172 341.941,131.664 342.164,132.459 342.061 C 132.601 342.043,132.625 342.381,132.512 342.814 C 132.372 343.352,132.507 343.600,132.943 343.600 C 133.293 343.600,133.862 344.146,134.207 344.813 C 134.552 345.480,135.008 345.919,135.220 345.788 C 135.612 345.545,135.980 346.185,136.162 347.424 C 136.218 347.802,136.564 348.331,136.932 348.599 C 137.299 348.868,137.600 349.292,137.600 349.541 C 137.600 349.790,137.960 350.218,138.400 350.493 C 138.840 350.768,139.205 351.174,139.211 351.396 C 139.217 351.618,139.948 352.248,140.835 352.796 C 142.499 353.823,146.200 357.805,146.200 358.569 C 146.200 358.806,146.470 359.000,146.800 359.000 C 147.130 359.000,147.456 359.395,147.525 359.878 C 147.606 360.447,147.850 360.679,148.219 360.537 C 148.579 360.399,148.935 360.702,149.185 361.359 C 149.402 361.932,149.834 362.400,150.143 362.400 C 150.453 362.400,150.807 362.783,150.929 363.252 C 151.073 363.801,151.364 364.023,151.747 363.876 C 152.389 363.629,153.363 364.504,152.930 364.937 C 152.785 365.082,152.866 365.200,153.109 365.200 C 153.352 365.200,154.142 365.740,154.864 366.400 C 155.587 367.060,156.498 367.600,156.889 367.600 C 157.330 367.600,157.600 367.900,157.600 368.387 C 157.600 368.920,157.793 369.101,158.194 368.947 C 158.584 368.797,158.925 369.077,159.185 369.759 C 159.402 370.332,159.855 370.800,160.190 370.800 C 160.526 370.800,161.160 371.160,161.600 371.600 C 162.040 372.040,162.850 372.400,163.400 372.400 C 164.032 372.400,164.400 372.626,164.400 373.013 C 164.400 373.700,165.836 374.371,166.892 374.177 C 167.272 374.106,167.566 374.173,167.544 374.325 C 167.431 375.119,167.696 375.515,168.623 375.937 C 169.185 376.194,169.534 376.583,169.399 376.802 C 169.264 377.021,169.298 377.214,169.476 377.231 C 169.654 377.247,170.160 377.340,170.600 377.437 C 171.040 377.533,171.689 377.646,172.042 377.687 C 172.395 377.728,172.665 378.040,172.642 378.381 C 172.615 378.773,173.004 379.046,173.700 379.127 C 174.305 379.196,174.987 379.601,175.214 380.027 C 175.442 380.452,176.006 380.800,176.467 380.800 C 176.929 380.800,177.629 381.172,178.023 381.626 C 178.417 382.081,178.847 382.419,178.979 382.378 C 179.736 382.144,181.600 382.864,181.600 383.390 C 181.600 383.805,181.995 384.000,182.836 384.000 C 183.581 384.000,184.336 384.316,184.736 384.796 C 185.101 385.234,186.120 385.700,187.000 385.832 C 187.880 385.964,188.924 386.362,189.319 386.716 C 190.120 387.432,190.710 387.586,192.900 387.650 C 194.086 387.685,194.400 387.852,194.400 388.447 C 194.400 389.041,194.696 389.200,195.800 389.200 C 196.667 389.200,197.505 389.505,198.000 390.000 C 198.568 390.568,199.333 390.800,200.637 390.800 C 201.868 390.800,202.809 391.064,203.491 391.600 C 204.257 392.203,205.114 392.400,206.965 392.400 C 208.927 392.400,209.560 392.561,210.107 393.200 C 210.715 393.910,211.287 394.000,215.196 394.000 C 218.844 394.000,219.600 394.103,219.600 394.600 C 219.600 394.930,219.735 395.224,219.900 395.253 C 221.990 395.625,225.561 395.711,240.600 395.752 C 258.314 395.800,260.400 395.678,260.400 394.592 C 260.400 394.107,261.150 394.000,264.538 394.000 C 268.091 394.000,268.773 393.893,269.362 393.243 C 269.886 392.663,270.739 392.450,272.988 392.337 C 275.005 392.235,276.161 391.979,276.665 391.522 C 277.070 391.155,278.211 390.798,279.201 390.728 C 280.520 390.634,280.989 390.436,280.959 389.986 C 280.916 389.352,281.050 389.315,283.875 389.184 C 284.862 389.138,285.876 388.802,286.344 388.366 C 286.781 387.959,287.815 387.551,288.640 387.460 C 289.466 387.369,290.354 387.003,290.615 386.647 C 290.875 386.291,291.555 386.000,292.126 386.000 C 292.697 386.000,293.593 385.571,294.118 385.046 C 294.642 384.521,295.806 383.968,296.704 383.816 C 297.603 383.664,298.429 383.302,298.541 383.010 C 298.653 382.718,299.477 382.356,300.372 382.205 C 301.378 382.035,302.000 381.714,302.000 381.365 C 302.000 381.045,302.392 380.800,302.904 380.800 C 303.401 380.800,304.032 380.440,304.307 380.000 C 304.622 379.496,305.240 379.200,305.976 379.200 C 306.770 379.200,307.223 378.958,307.385 378.448 C 307.523 378.013,308.149 377.590,308.869 377.446 C 309.554 377.309,310.344 376.883,310.625 376.499 C 310.906 376.114,311.285 375.797,311.468 375.794 C 311.650 375.791,312.285 375.297,312.878 374.698 C 313.490 374.079,314.209 373.705,314.542 373.833 C 314.903 373.972,315.225 373.750,315.383 373.254 C 315.523 372.812,316.034 372.394,316.519 372.325 C 317.004 372.256,317.400 371.932,317.400 371.604 C 317.400 371.275,317.880 370.916,318.469 370.804 C 319.057 370.692,320.076 370.118,320.732 369.530 C 321.389 368.941,322.062 368.581,322.227 368.730 C 322.392 368.878,322.414 368.685,322.276 368.300 C 322.050 367.671,322.385 367.418,323.276 367.545 C 323.427 367.566,323.664 367.227,323.803 366.792 C 324.032 366.070,324.480 365.821,325.307 365.955 C 325.477 365.983,325.820 365.554,326.072 365.002 C 326.323 364.451,326.770 364.000,327.064 364.000 C 327.359 364.000,327.600 363.724,327.600 363.387 C 327.600 362.702,329.115 361.997,329.924 362.305 C 330.220 362.417,330.540 362.149,330.661 361.689 C 330.778 361.241,331.217 360.784,331.637 360.674 C 332.090 360.556,332.400 360.125,332.400 359.614 C 332.400 359.140,332.580 358.864,332.800 359.000 C 333.020 359.136,333.200 359.046,333.200 358.800 C 333.200 358.554,333.380 358.464,333.600 358.600 C 333.820 358.736,334.000 358.579,334.000 358.251 C 334.000 357.922,334.374 357.535,334.830 357.390 C 335.287 357.246,335.554 357.020,335.423 356.890 C 335.070 356.537,337.658 354.001,338.378 353.994 C 338.926 353.988,338.928 353.941,338.400 353.600 C 337.957 353.314,337.938 353.211,338.329 353.206 C 339.000 353.198,340.043 352.176,339.714 351.848 C 339.578 351.711,339.677 351.600,339.933 351.600 C 340.190 351.600,340.400 351.361,340.400 351.070 C 340.400 350.778,340.850 350.117,341.400 349.600 C 341.950 349.083,342.400 348.349,342.400 347.968 C 342.400 347.472,342.627 347.334,343.200 347.484 C 343.808 347.643,344.000 347.496,344.000 346.874 C 344.000 346.406,344.343 345.945,344.799 345.800 C 345.239 345.661,345.708 345.110,345.842 344.576 C 345.976 344.042,346.247 343.706,346.445 343.828 C 346.883 344.099,347.389 342.872,347.569 341.100 C 347.586 340.935,347.960 340.800,348.400 340.800 C 348.992 340.800,349.200 340.533,349.200 339.776 C 349.200 339.196,349.373 338.860,349.600 339.000 C 349.820 339.136,350.000 339.046,350.000 338.800 C 350.000 338.554,350.208 338.481,350.462 338.638 C 350.723 338.800,350.816 338.749,350.675 338.522 C 350.538 338.300,350.871 337.518,351.413 336.782 C 351.956 336.046,352.400 335.120,352.400 334.722 C 352.400 334.267,352.695 334.000,353.200 334.000 C 353.867 334.000,354.000 333.733,354.000 332.400 C 354.000 331.067,354.133 330.800,354.800 330.800 C 355.240 330.800,355.614 330.665,355.631 330.500 C 355.742 329.406,355.999 328.647,356.328 328.440 C 356.538 328.308,356.994 327.519,357.340 326.686 C 357.687 325.853,358.247 324.895,358.585 324.557 C 358.923 324.219,359.200 323.476,359.200 322.905 C 359.200 322.334,359.318 321.985,359.463 322.130 C 359.968 322.635,360.800 321.493,360.800 320.295 C 360.800 319.631,361.094 318.874,361.452 318.611 C 361.851 318.320,362.182 317.330,362.303 316.067 C 362.465 314.384,362.641 314.000,363.251 314.000 C 363.848 314.000,364.003 313.695,364.013 312.500 C 364.025 311.004,364.846 309.379,365.340 309.873 C 365.483 310.016,365.623 309.743,365.650 309.267 C 365.678 308.790,365.745 308.220,365.800 308.000 C 365.855 307.780,365.923 307.066,365.950 306.413 C 365.985 305.588,366.166 305.289,366.544 305.434 C 367.088 305.642,367.585 303.848,367.596 301.644 C 367.598 301.118,367.883 300.481,368.230 300.228 C 368.654 299.918,368.929 298.861,369.074 296.991 C 369.211 295.218,369.542 293.891,369.991 293.320 C 370.531 292.635,370.712 291.570,370.769 288.750 C 370.838 285.317,371.442 283.175,372.142 283.876 C 372.291 284.025,372.404 274.642,372.393 263.026 C 372.373 242.596,372.347 241.885,371.593 241.253 C 370.927 240.694,370.806 240.034,370.759 236.688 C 370.711 233.337,370.598 232.720,369.969 232.383 C 369.380 232.068,369.212 231.419,369.117 229.095 C 369.041 227.223,368.835 226.200,368.533 226.200 C 367.741 226.200,367.601 225.811,367.547 223.466 C 367.518 222.220,367.344 221.200,367.160 221.200 C 366.976 221.200,366.928 220.932,367.054 220.603 C 367.185 220.263,367.008 219.901,366.642 219.761 C 366.262 219.615,366.000 219.052,366.000 218.381 C 366.000 217.757,365.817 217.134,365.593 216.996 C 365.370 216.858,365.298 216.565,365.434 216.346 C 365.572 216.122,365.355 216.002,364.940 216.073 C 364.301 216.183,364.168 215.844,363.969 213.600 C 363.842 212.170,363.707 211.148,363.669 211.329 C 363.477 212.244,362.396 210.250,362.368 208.929 C 362.351 208.088,362.247 207.623,362.136 207.896 C 361.761 208.825,360.800 207.338,360.800 205.829 C 360.800 205.043,360.665 204.421,360.500 204.447 C 359.594 204.590,359.199 204.304,359.195 203.500 C 359.186 202.127,358.748 200.785,358.382 201.011 C 357.901 201.308,357.551 200.558,357.511 199.141 C 357.486 198.283,357.245 197.832,356.738 197.700 C 356.332 197.593,355.973 197.168,355.940 196.753 C 355.907 196.339,355.863 195.775,355.842 195.500 C 355.822 195.225,355.414 194.618,354.936 194.150 C 354.378 193.605,354.015 192.675,353.921 191.550 C 353.820 190.345,353.592 189.800,353.187 189.800 C 352.788 189.800,352.536 189.225,352.400 188.000 C 352.262 186.756,352.015 186.200,351.600 186.200 C 351.181 186.200,350.963 185.692,350.878 184.520 C 350.787 183.272,350.556 182.776,349.978 182.593 C 349.383 182.404,349.200 181.980,349.200 180.787 C 349.200 179.703,348.984 179.112,348.490 178.848 C 348.100 178.639,347.738 178.048,347.686 177.534 C 347.488 175.564,347.315 175.073,346.645 174.584 C 346.247 174.292,345.884 173.375,345.789 172.420 C 345.596 170.486,345.297 169.877,344.660 170.121 C 344.371 170.232,344.158 169.706,344.088 168.712 C 343.925 166.416,343.872 166.254,343.100 165.677 C 342.601 165.304,342.400 164.596,342.400 163.204 C 342.400 161.605,342.256 161.208,341.600 161.000 C 340.942 160.791,340.800 160.395,340.800 158.773 C 340.800 157.651,340.617 156.800,340.376 156.800 C 340.143 156.800,340.063 156.622,340.197 156.405 C 340.337 156.178,340.177 156.111,339.821 156.247 C 339.310 156.443,339.200 156.127,339.200 154.463 C 339.200 152.958,339.021 152.335,338.500 152.032 C 338.115 151.808,337.980 151.616,338.200 151.606 C 338.420 151.596,338.388 151.453,338.129 151.288 C 337.871 151.124,337.583 150.226,337.489 149.292 C 337.396 148.359,337.042 147.281,336.702 146.898 C 336.362 146.514,335.987 145.480,335.868 144.600 C 335.583 142.493,335.260 141.709,334.569 141.443 C 334.193 141.299,334.000 140.611,334.000 139.413 C 334.000 137.867,333.882 137.600,333.200 137.600 C 332.489 137.600,332.400 137.333,332.400 135.203 C 332.400 133.240,332.255 132.716,331.600 132.307 C 330.971 131.914,330.800 131.374,330.800 129.779 C 330.800 128.294,330.583 127.518,329.988 126.879 C 329.494 126.349,329.161 125.419,329.137 124.504 C 329.113 123.564,328.822 122.775,328.362 122.400 C 327.903 122.026,327.584 121.160,327.513 120.101 C 327.451 119.166,327.254 118.401,327.076 118.401 C 326.898 118.400,326.883 118.189,327.042 117.932 C 327.236 117.617,327.113 117.548,326.666 117.719 C 325.983 117.981,325.929 117.797,325.903 115.100 C 325.897 114.495,325.466 113.541,324.946 112.980 C 324.192 112.166,324.000 111.517,324.000 109.779 C 324.000 108.581,323.865 107.621,323.700 107.647 C 322.579 107.824,322.400 107.479,322.400 105.133 C 322.400 103.777,322.289 102.778,322.152 102.914 C 321.616 103.451,320.800 101.972,320.800 100.461 C 320.800 98.480,320.479 97.600,319.757 97.600 C 319.238 97.600,318.960 95.952,319.132 93.900 C 319.183 93.294,318.812 93.046,317.977 93.127 C 317.854 93.139,317.716 92.395,317.670 91.474 C 317.544 88.935,317.192 87.610,316.670 87.710 C 316.399 87.762,316.151 87.209,316.085 86.400 C 316.021 85.630,315.858 84.730,315.721 84.400 C 315.585 84.070,315.500 83.670,315.533 83.512 C 315.565 83.354,315.234 83.032,314.796 82.798 C 314.210 82.484,314.000 81.960,314.000 80.809 C 314.000 79.461,313.890 79.267,313.200 79.400 C 312.509 79.533,312.400 79.339,312.400 77.967 C 312.400 76.646,312.234 76.317,311.408 76.003 C 310.748 75.752,310.494 75.420,310.650 75.013 C 310.816 74.582,310.635 74.400,310.043 74.400 C 309.454 74.400,309.200 74.148,309.200 73.563 C 309.200 73.066,308.880 72.641,308.413 72.519 C 307.981 72.406,307.516 71.964,307.380 71.537 C 307.245 71.110,306.834 70.790,306.467 70.827 C 304.811 70.989,304.031 70.784,304.240 70.240 C 304.516 69.520,304.021 69.231,302.295 69.103 C 301.466 69.042,300.972 68.819,301.074 68.553 C 301.366 67.790,299.659 67.611,292.063 67.605 C 285.059 67.600,284.716 67.636,284.516 68.400 C 284.350 69.035,283.970 69.200,282.679 69.200 C 281.631 69.200,280.758 69.472,280.226 69.965 C 279.772 70.386,279.040 70.791,278.600 70.865 C 278.160 70.939,277.516 71.406,277.170 71.903 C 276.823 72.400,276.445 72.712,276.330 72.596 C 275.971 72.238,272.400 76.064,272.400 76.806 C 272.400 77.191,272.052 77.598,271.627 77.709 C 271.063 77.856,270.819 78.329,270.727 79.456 C 270.657 80.305,270.440 80.940,270.245 80.866 C 269.605 80.624,269.212 81.763,269.206 83.880 C 269.202 85.441,269.025 86.058,268.500 86.352 C 267.931 86.670,267.774 87.429,267.658 90.421 C 267.559 93.010,267.646 94.019,267.954 93.829 C 268.230 93.658,268.300 93.794,268.145 94.198 C 268.007 94.559,268.175 95.048,268.531 95.319 C 269.003 95.678,269.193 96.684,269.281 99.295 C 269.364 101.723,269.560 102.853,269.925 102.993 C 270.214 103.104,270.348 103.360,270.223 103.563 C 270.098 103.766,270.171 103.992,270.387 104.066 C 270.603 104.140,270.806 105.719,270.839 107.576 C 270.889 110.369,271.032 111.060,271.664 111.576 C 272.294 112.091,272.436 112.772,272.475 115.486 C 272.501 117.293,272.675 118.677,272.862 118.562 C 273.049 118.446,273.139 118.767,273.061 119.276 C 272.984 119.784,273.168 120.381,273.472 120.603 C 273.967 120.965,274.120 122.068,274.347 126.924 C 274.384 127.708,274.551 127.957,274.900 127.747 C 275.191 127.572,275.149 127.761,274.800 128.198 C 274.259 128.876,274.266 128.925,274.867 128.700 C 275.777 128.359,275.945 128.974,276.033 132.968 C 276.074 134.845,276.255 136.290,276.434 136.179 C 277.091 135.773,277.600 137.620,277.600 140.410 C 277.600 142.756,277.741 143.391,278.382 143.936 C 279.043 144.497,279.182 145.218,279.287 148.600 C 279.389 151.911,279.517 152.593,280.028 152.557 C 280.542 152.522,280.663 153.198,280.745 156.557 C 280.826 159.867,280.974 160.709,281.558 161.200 C 282.245 161.777,282.340 162.356,282.581 167.400 C 282.677 169.417,282.871 170.094,283.501 170.599 C 284.711 171.568,284.348 175.919,282.951 177.190 C 282.100 177.965,281.587 178.202,281.455 177.884 C 281.339 177.605,281.138 177.782,280.980 178.300 C 280.830 178.795,280.391 179.200,280.004 179.200 C 279.495 179.200,279.232 179.637,279.048 180.787 C 278.669 183.158,278.128 184.049,276.069 185.689 C 270.875 189.827,262.286 198.823,257.631 205.000 C 231.048 240.273,230.467 285.218,256.078 325.200 C 258.498 328.978,258.502 329.423,256.125 330.474 C 253.665 331.562,250.629 331.537,248.421 330.411 C 246.847 329.608,243.200 326.217,243.200 325.557 C 243.200 325.392,242.967 325.019,242.683 324.729 C 240.037 322.023,233.227 307.668,230.254 298.526 C 222.507 274.710,223.478 243.544,232.594 223.400 C 235.783 216.352,237.086 213.652,237.688 212.846 C 238.080 212.321,238.400 211.740,238.400 211.553 C 238.400 210.718,244.520 201.318,247.354 197.800 C 249.746 194.831,254.741 189.198,256.398 187.600 C 259.311 184.792,262.270 182.150,264.608 180.272 C 265.924 179.215,267.274 178.128,267.609 177.857 C 267.944 177.586,269.024 176.803,270.009 176.117 C 270.994 175.432,272.134 174.471,272.543 173.981 C 273.145 173.259,273.355 173.196,273.652 173.646 C 273.902 174.024,273.963 173.818,273.842 173.000 C 273.745 172.340,273.651 171.665,273.633 171.500 C 273.615 171.335,273.350 171.200,273.043 171.200 C 272.737 171.200,272.374 170.750,272.236 170.200 C 272.098 169.650,271.718 169.200,271.392 169.200 C 271.067 169.200,270.800 168.874,270.800 168.475 C 270.800 168.077,270.440 167.364,270.000 166.892 C 269.560 166.420,269.200 165.768,269.200 165.444 C 269.200 165.119,268.851 164.743,268.425 164.608 C 267.999 164.473,267.594 163.966,267.525 163.481 C 267.456 162.996,267.130 162.600,266.800 162.600 C 266.433 162.600,266.044 161.978,265.800 161.000 C 265.556 160.022,265.167 159.400,264.800 159.400 C 264.470 159.400,264.142 158.995,264.072 158.500 C 263.990 157.922,263.668 157.600,263.172 157.600 C 262.652 157.600,262.385 157.307,262.354 156.700 C 262.257 154.815,262.186 154.603,261.681 154.706 C 261.396 154.765,260.973 154.270,260.742 153.606 C 260.511 152.943,260.069 152.400,259.761 152.400 C 259.272 152.400,259.003 151.649,259.153 150.700 C 259.179 150.535,259.020 150.400,258.800 150.400 C 258.580 150.400,258.400 150.130,258.400 149.800 C 258.400 149.470,258.136 149.200,257.813 149.200 C 257.471 149.200,257.316 148.964,257.441 148.636 C 257.570 148.300,257.333 147.969,256.854 147.817 C 256.412 147.677,255.994 147.166,255.925 146.681 C 255.851 146.160,255.515 145.798,255.103 145.796 C 254.720 145.793,254.450 145.613,254.503 145.396 C 254.557 145.178,254.780 145.048,255.000 145.106 C 255.220 145.164,255.085 144.964,254.700 144.662 C 254.315 144.359,254.000 143.907,254.000 143.656 C 254.000 143.405,253.809 143.200,253.576 143.200 C 253.343 143.200,253.264 143.020,253.400 142.800 C 253.536 142.580,253.367 142.400,253.024 142.400 C 252.667 142.400,252.400 142.058,252.400 141.600 C 252.400 141.160,252.040 140.440,251.600 140.000 C 251.160 139.560,250.800 138.913,250.800 138.563 C 250.800 138.212,250.440 137.831,250.000 137.716 C 249.560 137.601,249.200 137.202,249.200 136.829 C 249.200 136.456,248.795 135.716,248.300 135.185 C 247.805 134.653,247.378 134.080,247.350 133.909 C 247.322 133.739,247.278 133.426,247.250 133.213 C 247.222 132.999,246.923 132.932,246.584 133.062 C 246.245 133.192,245.994 133.141,246.027 132.949 C 246.177 132.071,245.438 130.800,244.777 130.800 C 244.224 130.800,244.018 130.439,243.924 129.300 C 243.845 128.346,243.615 127.837,243.291 127.903 C 243.011 127.960,242.611 127.555,242.401 127.003 C 242.191 126.451,241.756 126.000,241.434 126.000 C 241.046 126.000,240.806 125.494,240.724 124.500 C 240.640 123.489,240.405 123.000,240.000 123.000 C 239.670 123.000,239.340 122.574,239.266 122.054 C 239.192 121.533,238.792 121.018,238.376 120.910 C 237.893 120.783,237.525 120.210,237.359 119.324 C 237.208 118.518,236.795 117.825,236.373 117.668 C 235.974 117.521,235.662 117.220,235.678 117.000 C 235.695 116.780,235.325 116.422,234.855 116.205 C 234.385 115.988,233.994 115.538,233.986 115.205 C 233.978 114.872,233.697 114.150,233.361 113.600 L 232.750 112.600 232.953 113.558 C 233.069 114.106,233.006 114.363,232.806 114.158 C 232.614 113.961,232.399 113.170,232.329 112.400 C 232.245 111.486,231.994 111.000,231.605 111.000 C 231.278 111.000,230.946 110.640,230.867 110.200 C 230.787 109.760,230.287 108.938,229.756 108.372 C 229.224 107.807,228.911 107.222,229.061 107.072 C 229.211 106.923,229.113 106.800,228.843 106.800 C 228.573 106.800,228.464 106.620,228.600 106.400 C 228.736 106.180,228.567 106.000,228.224 106.000 C 227.673 106.000,227.432 105.557,227.539 104.740 C 227.558 104.597,227.149 104.374,226.631 104.243 C 226.112 104.113,225.696 103.780,225.707 103.503 C 225.772 101.804,225.527 101.106,224.800 100.916 C 224.357 100.800,224.000 100.370,224.000 99.953 C 224.000 99.467,223.717 99.200,223.200 99.200 C 222.437 99.200,222.165 98.431,222.377 96.869 C 222.417 96.577,222.078 96.241,221.625 96.122 C 221.160 96.001,220.800 95.578,220.800 95.153 C 220.800 94.731,220.520 94.400,220.163 94.400 C 219.616 94.400,219.001 93.290,219.166 92.601 C 219.195 92.479,218.748 91.943,218.173 91.410 C 217.598 90.877,217.252 90.240,217.404 89.994 C 217.565 89.733,217.328 89.454,216.836 89.325 C 216.371 89.204,215.887 88.689,215.760 88.181 C 215.632 87.673,215.263 87.156,214.939 87.032 C 214.614 86.907,214.461 86.624,214.598 86.403 C 214.735 86.181,214.678 86.000,214.470 86.000 C 214.263 86.000,213.999 85.640,213.884 85.200 C 213.769 84.760,213.388 84.400,213.037 84.400 C 212.624 84.400,212.400 84.048,212.400 83.400 C 212.400 82.850,211.996 81.996,211.502 81.502 C 211.008 81.008,210.656 80.378,210.720 80.102 C 210.823 79.651,210.319 79.423,209.500 79.553 C 209.335 79.579,209.178 79.330,209.150 79.000 C 209.048 77.774,208.986 77.609,208.341 76.856 C 207.978 76.432,207.561 75.706,207.414 75.243 C 207.266 74.779,206.908 74.400,206.616 74.400 C 206.325 74.400,205.969 73.931,205.825 73.358 C 205.628 72.571,205.373 72.366,204.782 72.521 C 204.145 72.687,203.991 72.509,203.950 71.563 C 203.864 69.559,203.798 69.399,203.090 69.456 C 202.650 69.491,202.400 69.224,202.400 68.718 C 202.400 68.262,202.061 67.836,201.600 67.716 C 200.994 67.557,200.800 67.170,200.800 66.116 C 200.800 65.062,200.606 64.675,200.000 64.516 C 199.540 64.396,199.200 63.970,199.200 63.516 C 199.200 63.076,198.864 62.637,198.443 62.527 C 198.016 62.416,197.590 61.851,197.466 61.232 C 197.233 60.067,195.177 57.600,194.440 57.600 C 194.198 57.600,194.000 57.150,194.000 56.600 C 194.000 56.050,193.640 55.240,193.200 54.800 C 192.760 54.360,192.400 53.713,192.400 53.363 C 192.400 53.012,192.040 52.631,191.600 52.516 C 191.160 52.401,190.800 51.999,190.800 51.623 C 190.800 51.247,190.363 50.529,189.829 50.027 C 189.290 49.521,188.957 48.856,189.081 48.534 C 189.222 48.166,188.990 47.870,188.452 47.729 C 187.952 47.599,187.600 47.186,187.600 46.730 C 187.600 46.302,187.456 46.042,187.281 46.150 C 186.831 46.428,185.815 45.735,185.764 45.117 C 185.741 44.833,185.694 44.207,185.661 43.727 C 185.627 43.241,185.246 42.741,184.800 42.600 C 184.360 42.460,184.000 41.998,184.000 41.573 C 184.000 41.067,183.724 40.800,183.200 40.800 C 182.548 40.800,182.400 40.533,182.400 39.363 C 182.400 38.262,182.213 37.876,181.600 37.716 C 180.871 37.525,180.624 37.113,180.753 36.300 C 180.779 36.135,180.440 36.000,180.000 36.000 C 179.560 36.000,179.178 35.730,179.150 35.400 C 179.123 35.070,179.055 34.620,179.000 34.400 C 178.945 34.180,178.878 33.750,178.850 33.444 C 178.822 33.139,178.485 32.914,178.100 32.944 C 177.591 32.985,177.428 32.744,177.502 32.063 C 177.572 31.415,177.360 31.062,176.815 30.920 C 176.381 30.806,175.918 30.373,175.786 29.957 C 175.654 29.541,175.299 29.200,174.997 29.200 C 174.244 29.200,173.875 28.500,173.914 27.142 C 173.939 26.269,173.765 26.000,173.173 26.000 C 172.667 26.000,172.400 25.724,172.400 25.200 C 172.400 24.667,172.133 24.400,171.600 24.400 C 171.156 24.400,170.800 24.133,170.800 23.800 C 170.800 23.271,170.305 23.014,169.836 23.300 C 169.746 23.355,169.282 22.903,168.804 22.296 C 168.327 21.689,167.783 21.287,167.596 21.403 C 167.408 21.518,167.142 21.430,167.004 21.207 C 166.866 20.983,166.393 20.800,165.953 20.800 C 165.468 20.800,165.261 20.625,165.428 20.355 C 165.854 19.666,164.784 19.213,162.714 19.206 C 161.241 19.201,160.734 19.025,160.400 18.400 C 159.877 17.424,151.606 17.142,151.594 18.100 C 151.589 18.486,151.518 18.490,151.280 18.116 C 151.056 17.763,150.848 17.831,150.514 18.366 " stroke="none" fill="#fcdc5c" fill-rule="evenodd"></path></g></svg>